<svg xmlns="http://www.w3.org/2000/svg" style="display:none" aria-hidden="true">
  <!-- OC-Kontrol icons. Источник: Lucide (ISC), имена глифов — из Figma.
       Толщина штриха НЕ зашита: приходит из CSS через --icon-stroke.
       Обновлять генератором, руками не править. -->
  <symbol id="archive" viewBox="0 0 24 24" fill="none"
          stroke="currentColor" stroke-linecap="round" stroke-linejoin="round">
    <svg
    class="lucide lucide-archive"
    xmlns="http://www.w3.org/2000/svg"
    width="24"
    height="24"
    viewBox="0 0 24 24"
    fill="none"
    stroke="currentColor"
    stroke-width="2"
    stroke-linecap="round"
    stroke-linejoin="round"
    >
    <rect width="20" height="5" x="2" y="3" rx="1" />
    <path d="M4 8v11a2 2 0 0 0 2 2h12a2 2 0 0 0 2-2V8" />
    <path d="M10 12h4" />
  </symbol>
  <symbol id="bell" viewBox="0 0 24 24" fill="none"
          stroke="currentColor" stroke-linecap="round" stroke-linejoin="round">
    <svg
    class="lucide lucide-bell"
    xmlns="http://www.w3.org/2000/svg"
    width="24"
    height="24"
    viewBox="0 0 24 24"
    fill="none"
    stroke="currentColor"
    stroke-width="2"
    stroke-linecap="round"
    stroke-linejoin="round"
    >
    <path d="M10.268 21a2 2 0 0 0 3.464 0" />
    <path d="M3.262 15.326A1 1 0 0 0 4 17h16a1 1 0 0 0 .74-1.673C19.41 13.956 18 12.499 18 8A6 6 0 0 0 6 8c0 4.499-1.411 5.956-2.738 7.326" />
  </symbol>
  <symbol id="board" viewBox="0 0 24 24" fill="none"
          stroke="currentColor" stroke-linecap="round" stroke-linejoin="round">
    <svg
    class="lucide lucide-kanban"
    xmlns="http://www.w3.org/2000/svg"
    width="24"
    height="24"
    viewBox="0 0 24 24"
    fill="none"
    stroke="currentColor"
    stroke-width="2"
    stroke-linecap="round"
    stroke-linejoin="round"
    >
    <path d="M5 3v14" />
    <path d="M12 3v8" />
    <path d="M19 3v18" />
  </symbol>
  <symbol id="bolt" viewBox="0 0 24 24" fill="none"
          stroke="currentColor" stroke-linecap="round" stroke-linejoin="round">
    <svg
    class="lucide lucide-zap"
    xmlns="http://www.w3.org/2000/svg"
    width="24"
    height="24"
    viewBox="0 0 24 24"
    fill="none"
    stroke="currentColor"
    stroke-width="2"
    stroke-linecap="round"
    stroke-linejoin="round"
    >
    <path d="M15.914 4a1.5 1.5 0 00-2.474-1.561l-9 9A1.5 1.5 0 005.5 14h4.002a.5.5 0 01.471.666L8.086 20a1.5 1.5 0 002.475 1.56l9-9A1.5 1.5 0 0018.5 10h-3.997a.5.5 0 01-.472-.667z" />
  </symbol>
  <symbol id="car" viewBox="0 0 24 24" fill="none"
          stroke="currentColor" stroke-linecap="round" stroke-linejoin="round">
    <svg
    class="lucide lucide-car"
    xmlns="http://www.w3.org/2000/svg"
    width="24"
    height="24"
    viewBox="0 0 24 24"
    fill="none"
    stroke="currentColor"
    stroke-width="2"
    stroke-linecap="round"
    stroke-linejoin="round"
    >
    <path d="M19 17h2c.6 0 1-.4 1-1v-3c0-.9-.7-1.7-1.5-1.9C18.7 10.6 16 10 16 10s-1.3-1.4-2.2-2.3c-.5-.4-1.1-.7-1.8-.7H5c-.6 0-1.1.4-1.4.9l-1.4 2.9A3.7 3.7 0 0 0 2 12v4c0 .6.4 1 1 1h2" />
    <circle cx="7" cy="17" r="2" />
    <path d="M9 17h6" />
    <circle cx="17" cy="17" r="2" />
  </symbol>
  <symbol id="check" viewBox="0 0 24 24" fill="none"
          stroke="currentColor" stroke-linecap="round" stroke-linejoin="round">
    <svg
    class="lucide lucide-check"
    xmlns="http://www.w3.org/2000/svg"
    width="24"
    height="24"
    viewBox="0 0 24 24"
    fill="none"
    stroke="currentColor"
    stroke-width="2"
    stroke-linecap="round"
    stroke-linejoin="round"
    >
    <path d="M20 6 9 17l-5-5" />
  </symbol>
  <symbol id="chevron-down" viewBox="0 0 24 24" fill="none"
          stroke="currentColor" stroke-linecap="round" stroke-linejoin="round">
    <svg
    class="lucide lucide-chevron-down"
    xmlns="http://www.w3.org/2000/svg"
    width="24"
    height="24"
    viewBox="0 0 24 24"
    fill="none"
    stroke="currentColor"
    stroke-width="2"
    stroke-linecap="round"
    stroke-linejoin="round"
    >
    <path d="m6 9 6 6 6-6" />
  </symbol>
  <symbol id="chevron-left" viewBox="0 0 24 24" fill="none"
          stroke="currentColor" stroke-linecap="round" stroke-linejoin="round">
    <svg
    class="lucide lucide-chevron-left"
    xmlns="http://www.w3.org/2000/svg"
    width="24"
    height="24"
    viewBox="0 0 24 24"
    fill="none"
    stroke="currentColor"
    stroke-width="2"
    stroke-linecap="round"
    stroke-linejoin="round"
    >
    <path d="m15 18-6-6 6-6" />
  </symbol>
  <symbol id="chevron-right" viewBox="0 0 24 24" fill="none"
          stroke="currentColor" stroke-linecap="round" stroke-linejoin="round">
    <svg
    class="lucide lucide-chevron-right"
    xmlns="http://www.w3.org/2000/svg"
    width="24"
    height="24"
    viewBox="0 0 24 24"
    fill="none"
    stroke="currentColor"
    stroke-width="2"
    stroke-linecap="round"
    stroke-linejoin="round"
    >
    <path d="m9 18 6-6-6-6" />
  </symbol>
  <symbol id="circle" viewBox="0 0 24 24" fill="none"
          stroke="currentColor" stroke-linecap="round" stroke-linejoin="round">
    <svg
    class="lucide lucide-circle"
    xmlns="http://www.w3.org/2000/svg"
    width="24"
    height="24"
    viewBox="0 0 24 24"
    fill="none"
    stroke="currentColor"
    stroke-width="2"
    stroke-linecap="round"
    stroke-linejoin="round"
    >
    <circle cx="12" cy="12" r="10" />
  </symbol>
  <symbol id="circle-check" viewBox="0 0 24 24" fill="none"
          stroke="currentColor" stroke-linecap="round" stroke-linejoin="round">
    <svg
    class="lucide lucide-circle-check-big"
    xmlns="http://www.w3.org/2000/svg"
    width="24"
    height="24"
    viewBox="0 0 24 24"
    fill="none"
    stroke="currentColor"
    stroke-width="2"
    stroke-linecap="round"
    stroke-linejoin="round"
    >
    <path d="M21.801 10A10 10 0 1 1 17 3.335" />
    <path d="m9 11 3 3L22 4" />
  </symbol>
  <symbol id="clock" viewBox="0 0 24 24" fill="none"
          stroke="currentColor" stroke-linecap="round" stroke-linejoin="round">
    <svg
    class="lucide lucide-clock"
    xmlns="http://www.w3.org/2000/svg"
    width="24"
    height="24"
    viewBox="0 0 24 24"
    fill="none"
    stroke="currentColor"
    stroke-width="2"
    stroke-linecap="round"
    stroke-linejoin="round"
    >
    <circle cx="12" cy="12" r="10" />
    <path d="M12 6v6l4 2" />
  </symbol>
  <symbol id="document" viewBox="0 0 24 24" fill="none"
          stroke="currentColor" stroke-linecap="round" stroke-linejoin="round">
    <svg
    class="lucide lucide-file-text"
    xmlns="http://www.w3.org/2000/svg"
    width="24"
    height="24"
    viewBox="0 0 24 24"
    fill="none"
    stroke="currentColor"
    stroke-width="2"
    stroke-linecap="round"
    stroke-linejoin="round"
    >
    <path d="M6 22a2 2 0 0 1-2-2V4a2 2 0 0 1 2-2h8a2.4 2.4 0 0 1 1.704.706l3.588 3.588A2.4 2.4 0 0 1 20 8v12a2 2 0 0 1-2 2z" />
    <path d="M14 2v5a1 1 0 0 0 1 1h5" />
    <path d="M10 9H8" />
    <path d="M16 13H8" />
    <path d="M16 17H8" />
  </symbol>
  <symbol id="edit" viewBox="0 0 24 24" fill="none"
          stroke="currentColor" stroke-linecap="round" stroke-linejoin="round">
    <svg
    class="lucide lucide-square-pen"
    xmlns="http://www.w3.org/2000/svg"
    width="24"
    height="24"
    viewBox="0 0 24 24"
    fill="none"
    stroke="currentColor"
    stroke-width="2"
    stroke-linecap="round"
    stroke-linejoin="round"
    >
    <path d="M12 3H5a2 2 0 0 0-2 2v14a2 2 0 0 0 2 2h14a2 2 0 0 0 2-2v-7" />
    <path d="M18.375 2.625a1 1 0 0 1 3 3l-9.013 9.014a2 2 0 0 1-.853.505l-2.873.84a.5.5 0 0 1-.62-.62l.84-2.873a2 2 0 0 1 .506-.852z" />
  </symbol>
  <symbol id="filter" viewBox="0 0 24 24" fill="none"
          stroke="currentColor" stroke-linecap="round" stroke-linejoin="round">
    <svg
    class="lucide lucide-funnel"
    xmlns="http://www.w3.org/2000/svg"
    width="24"
    height="24"
    viewBox="0 0 24 24"
    fill="none"
    stroke="currentColor"
    stroke-width="2"
    stroke-linecap="round"
    stroke-linejoin="round"
    >
    <path d="M10 20a1 1 0 0 0 .553.895l2 1A1 1 0 0 0 14 21v-7a2 2 0 0 1 .517-1.341L21.74 4.67A1 1 0 0 0 21 3H3a1 1 0 0 0-.742 1.67l7.225 7.989A2 2 0 0 1 10 14z" />
  </symbol>
  <symbol id="grid" viewBox="0 0 24 24" fill="none"
          stroke="currentColor" stroke-linecap="round" stroke-linejoin="round">
    <svg
    class="lucide lucide-layout-grid"
    xmlns="http://www.w3.org/2000/svg"
    width="24"
    height="24"
    viewBox="0 0 24 24"
    fill="none"
    stroke="currentColor"
    stroke-width="2"
    stroke-linecap="round"
    stroke-linejoin="round"
    >
    <rect width="7" height="7" x="3" y="3" rx="1" />
    <rect width="7" height="7" x="14" y="3" rx="1" />
    <rect width="7" height="7" x="14" y="14" rx="1" />
    <rect width="7" height="7" x="3" y="14" rx="1" />
  </symbol>
  <symbol id="list" viewBox="0 0 24 24" fill="none"
          stroke="currentColor" stroke-linecap="round" stroke-linejoin="round">
    <svg
    class="lucide lucide-list"
    xmlns="http://www.w3.org/2000/svg"
    width="24"
    height="24"
    viewBox="0 0 24 24"
    fill="none"
    stroke="currentColor"
    stroke-width="2"
    stroke-linecap="round"
    stroke-linejoin="round"
    >
    <path d="M3 5h.01" />
    <path d="M3 12h.01" />
    <path d="M3 19h.01" />
    <path d="M8 5h13" />
    <path d="M8 12h13" />
    <path d="M8 19h13" />
  </symbol>
  <symbol id="plus" viewBox="0 0 24 24" fill="none"
          stroke="currentColor" stroke-linecap="round" stroke-linejoin="round">
    <svg
    class="lucide lucide-plus"
    xmlns="http://www.w3.org/2000/svg"
    width="24"
    height="24"
    viewBox="0 0 24 24"
    fill="none"
    stroke="currentColor"
    stroke-width="2"
    stroke-linecap="round"
    stroke-linejoin="round"
    >
    <path d="M5 12h14" />
    <path d="M12 5v14" />
  </symbol>
  <symbol id="search" viewBox="0 0 24 24" fill="none"
          stroke="currentColor" stroke-linecap="round" stroke-linejoin="round">
    <svg
    class="lucide lucide-search"
    xmlns="http://www.w3.org/2000/svg"
    width="24"
    height="24"
    viewBox="0 0 24 24"
    fill="none"
    stroke="currentColor"
    stroke-width="2"
    stroke-linecap="round"
    stroke-linejoin="round"
    >
    <path d="m21 21-4.34-4.34" />
    <circle cx="11" cy="11" r="8" />
  </symbol>
  <symbol id="settings" viewBox="0 0 24 24" fill="none"
          stroke="currentColor" stroke-linecap="round" stroke-linejoin="round">
    <svg
    class="lucide lucide-settings"
    xmlns="http://www.w3.org/2000/svg"
    width="24"
    height="24"
    viewBox="0 0 24 24"
    fill="none"
    stroke="currentColor"
    stroke-width="2"
    stroke-linecap="round"
    stroke-linejoin="round"
    >
    <path d="M9.671 4.136a2.34 2.34 0 0 1 4.659 0 2.34 2.34 0 0 0 3.319 1.915 2.34 2.34 0 0 1 2.33 4.033 2.34 2.34 0 0 0 0 3.831 2.34 2.34 0 0 1-2.33 4.033 2.34 2.34 0 0 0-3.319 1.915 2.34 2.34 0 0 1-4.659 0 2.34 2.34 0 0 0-3.32-1.915 2.34 2.34 0 0 1-2.33-4.033 2.34 2.34 0 0 0 0-3.831A2.34 2.34 0 0 1 6.35 6.051a2.34 2.34 0 0 0 3.319-1.915" />
    <circle cx="12" cy="12" r="3" />
  </symbol>
  <symbol id="shield" viewBox="0 0 24 24" fill="none"
          stroke="currentColor" stroke-linecap="round" stroke-linejoin="round">
    <svg
    class="lucide lucide-shield"
    xmlns="http://www.w3.org/2000/svg"
    width="24"
    height="24"
    viewBox="0 0 24 24"
    fill="none"
    stroke="currentColor"
    stroke-width="2"
    stroke-linecap="round"
    stroke-linejoin="round"
    >
    <path d="M20 13c0 5-3.5 7.5-7.66 8.95a1 1 0 0 1-.67-.01C7.5 20.5 4 18 4 13V6a1 1 0 0 1 1-1c2 0 4.5-1.2 6.24-2.72a1.17 1.17 0 0 1 1.52 0C14.51 3.81 17 5 19 5a1 1 0 0 1 1 1z" />
  </symbol>
  <symbol id="trash" viewBox="0 0 24 24" fill="none"
          stroke="currentColor" stroke-linecap="round" stroke-linejoin="round">
    <svg
    class="lucide lucide-trash-2"
    xmlns="http://www.w3.org/2000/svg"
    width="24"
    height="24"
    viewBox="0 0 24 24"
    fill="none"
    stroke="currentColor"
    stroke-width="2"
    stroke-linecap="round"
    stroke-linejoin="round"
    >
    <path d="M10 11v6" />
    <path d="M14 11v6" />
    <path d="M19 6v14a2 2 0 0 1-2 2H7a2 2 0 0 1-2-2V6" />
    <path d="M3 6h18" />
    <path d="M8 6V4a2 2 0 0 1 2-2h4a2 2 0 0 1 2 2v2" />
  </symbol>
  <symbol id="warning" viewBox="0 0 24 24" fill="none"
          stroke="currentColor" stroke-linecap="round" stroke-linejoin="round">
    <svg
    class="lucide lucide-triangle-alert"
    xmlns="http://www.w3.org/2000/svg"
    width="24"
    height="24"
    viewBox="0 0 24 24"
    fill="none"
    stroke="currentColor"
    stroke-width="2"
    stroke-linecap="round"
    stroke-linejoin="round"
    >
    <path d="m21.73 18-8-14a2 2 0 0 0-3.48 0l-8 14A2 2 0 0 0 4 21h16a2 2 0 0 0 1.73-3" />
    <path d="M12 9v4" />
    <path d="M12 17h.01" />
  </symbol>
  <symbol id="x" viewBox="0 0 24 24" fill="none"
          stroke="currentColor" stroke-linecap="round" stroke-linejoin="round">
    <svg
    class="lucide lucide-x"
    xmlns="http://www.w3.org/2000/svg"
    width="24"
    height="24"
    viewBox="0 0 24 24"
    fill="none"
    stroke="currentColor"
    stroke-width="2"
    stroke-linecap="round"
    stroke-linejoin="round"
    >
    <path d="M18 6 6 18" />
    <path d="m6 6 12 12" />
  </symbol>
</svg>
